<svg width="19" height="19" viewBox="0 0 19 19" fill="none" xmlns="http://www.w3.org/2000/svg">
<path d="M2.375 2.375L16.625 16.625" stroke="#0068FF" stroke-width="1.5" stroke-linecap="round" stroke-linejoin="round"/>
<path d="M8.37988 8.38055C8.08278 8.67734 7.91575 9.07999 7.91553 9.49992C7.9153 9.91986 8.08191 10.3227 8.37869 10.6198C8.67548 10.9169 9.07813 11.0839 9.49806 11.0841C9.918 11.0844 10.3208 10.9178 10.6179 10.621" stroke="#0068FF" stroke-width="1.5" stroke-linecap="round" stroke-linejoin="round"/>
<path d="M13.7409 13.7354C12.4497 14.6063 11.0373 15.0417 9.49992 15.0417C6.33325 15.0417 3.69463 13.1947 1.58325 9.50002C2.66704 7.60398 3.88938 6.19481 5.25025 5.27252" stroke="#0068FF" stroke-width="1.5" stroke-linecap="round" stroke-linejoin="round"/>
<path d="M7.41235 4.24732C8.09114 4.05314 8.79397 3.95586 9.49998 3.95836C12.6666 3.95836 15.3053 5.80532 17.4166 9.50003C16.8007 10.5775 16.1405 11.4982 15.4351 12.2614" stroke="#0068FF" stroke-width="1.5" stroke-linecap="round" stroke-linejoin="round"/>
</svg>
