<svg width="19" height="19" viewBox="0 0 19 19" fill="none" xmlns="http://www.w3.org/2000/svg">
<path d="M9.50008 11.0834C9.92001 11.0834 10.3227 10.9165 10.6197 10.6196C10.9166 10.3227 11.0834 9.91995 11.0834 9.50002C11.0834 9.08009 10.9166 8.67737 10.6197 8.38043C10.3227 8.0835 9.92001 7.91669 9.50008 7.91669C9.08016 7.91669 8.67743 8.0835 8.3805 8.38043C8.08356 8.67737 7.91675 9.08009 7.91675 9.50002C7.91675 9.91995 8.08356 10.3227 8.3805 10.6196C8.67743 10.9165 9.08016 11.0834 9.50008 11.0834Z" stroke="white" stroke-width="1.5" stroke-linecap="round" stroke-linejoin="round"/>
<path d="M17.4166 9.49998C15.3052 13.1947 12.6666 15.0416 9.49992 15.0416C6.33325 15.0416 3.69463 13.1947 1.58325 9.49998C3.69463 5.80527 6.33325 3.95831 9.49992 3.95831C12.6666 3.95831 15.3052 5.80527 17.4166 9.49998Z" stroke="white" stroke-width="1.5" stroke-linecap="round" stroke-linejoin="round"/>
</svg>
